<svg width="415" height="151" viewBox="0 0 415 151" fill="none" xmlns="http://www.w3.org/2000/svg">
<g clip-path="url(#clip0_1_97)">
<path d="M281.541 125.563C281.541 127.162 281.259 128.643 280.719 129.983C280.155 131.346 279.334 132.545 278.253 133.533C277.197 134.52 275.882 135.296 274.379 135.837C272.899 136.377 271.232 136.636 269.447 136.636H261.111V114.49H269.447C271.256 114.49 272.923 114.749 274.379 115.289C275.882 115.83 277.173 116.606 278.253 117.593C279.31 118.581 280.155 119.78 280.719 121.143C281.259 122.507 281.541 123.988 281.541 125.563ZM277.901 125.563C277.901 124.388 277.713 123.306 277.314 122.342C276.938 121.402 276.398 120.603 275.67 119.944C274.942 119.286 274.097 118.769 273.064 118.393C272.007 118.017 270.809 117.828 269.471 117.828H264.798V133.298H269.471C270.809 133.298 272.03 133.109 273.064 132.733C274.097 132.357 274.966 131.84 275.67 131.182C276.375 130.523 276.938 129.724 277.314 128.807C277.69 127.843 277.901 126.762 277.901 125.563Z" fill="#272727"/>
<path d="M284.265 136.612V114.49H287.905V136.612H284.265Z" fill="#272727"/>
<path d="M314.886 125.563C314.886 131.793 309.438 136.847 302.722 136.847C296.006 136.847 290.558 131.793 290.558 125.563C290.558 119.333 296.006 114.279 302.722 114.279C306.127 114.279 309.18 115.572 311.387 117.664L308.804 120.015C307.255 118.534 305.094 117.593 302.699 117.593C298.002 117.593 294.198 121.167 294.198 125.563C294.198 129.959 298.026 133.533 302.699 133.533C306.785 133.533 310.213 130.829 311.035 127.232H302.84L306.48 123.917H311.012C311.012 123.917 311.012 123.917 311.012 123.894H314.722C314.839 124.435 314.886 124.975 314.886 125.563Z" fill="#272727"/>
<path d="M317.329 136.612V114.49H320.968V136.612H317.329Z" fill="#272727"/>
<path d="M340.553 114.49V117.805H333.579V136.636H329.939V117.805H322.964V114.49H340.553Z" fill="#272727"/>
<path d="M360.231 136.612H356.357L354.243 131.276H343.723L341.61 136.612H337.735L346.471 114.49H351.472L360.231 136.612ZM352.928 127.961L348.983 117.969L345.038 127.961H352.928Z" fill="#272727"/>
<path d="M377.163 133.321V136.636H362.181V114.49H365.82V133.321H377.163Z" fill="#272727"/>
<path opacity="0.65" d="M294.503 17.5849C294.456 17.5379 294.433 17.5144 294.386 17.4674C294.363 17.4909 294.339 17.5144 294.316 17.5379C294.363 17.5849 294.386 17.6084 294.433 17.6554C294.456 17.6319 294.48 17.6084 294.503 17.5849ZM294.316 91.9918C294.363 92.0388 294.386 92.0623 294.433 92.1093C294.456 92.0858 294.48 92.0623 294.503 92.0388C294.456 91.9918 294.433 91.9682 294.386 91.9212C294.363 91.9447 294.339 91.9682 294.316 91.9918Z" fill="#EC6696"/>
<path d="M260.219 78.4739C247.679 78.4739 237.44 68.6236 236.83 56.2342H236.759C236.759 55.9756 236.736 55.717 236.712 55.4584C236.712 55.7405 236.712 56.0226 236.736 56.2812C237.37 68.6706 247.585 78.521 260.125 78.521C260.313 78.521 260.477 78.521 260.665 78.521C260.688 78.521 260.712 78.521 260.735 78.521V78.4504C260.571 78.4739 260.407 78.4739 260.219 78.4739ZM206.561 9.63881C199.492 6.18295 191.532 4.25519 183.125 4.25519C173.661 4.25519 164.785 6.70015 157.059 11.0023C160.816 13.0947 164.315 15.6337 167.462 18.5488C177.137 27.5294 171.078 43.5627 158.304 44.5501C157.905 44.5736 157.505 44.5971 157.083 44.5971H157.012C156.777 44.5971 156.543 44.5971 156.308 44.5736C152.738 44.409 149.357 42.9514 146.703 40.5535C143.674 37.8029 139.917 35.8281 135.76 34.9818C135.408 34.9113 135.056 34.8407 134.704 34.7937C134.351 35.5225 134.023 36.2513 133.717 36.9801C130.876 43.6567 129.35 51.0151 129.467 58.7497C129.89 87.3134 152.903 110.752 181.411 111.645C190.405 111.928 198.929 109.976 206.467 106.332V59.7841C205.551 71.8913 195.43 81.4361 183.101 81.4361C169.881 81.4361 159.196 70.4573 159.689 57.104C160.135 44.9497 170.022 35.0523 182.162 34.5586C194.913 34.0649 205.504 43.7743 206.443 56.1871V55.1057C206.443 41.3293 211.609 28.7753 220.134 19.2776C220.157 19.2541 220.181 19.2306 220.204 19.2071C219.312 18.3372 218.396 17.5144 217.457 16.7386C214.169 13.9175 210.506 11.5431 206.561 9.63881Z" fill="#38AA43"/>
<path opacity="0.65" d="M301.994 16.3859C301.947 16.3389 301.924 16.3154 301.877 16.2684C301.853 16.2919 301.83 16.3154 301.807 16.3389C301.853 16.3859 301.877 16.4095 301.924 16.4565C301.971 16.433 301.994 16.4095 301.994 16.3859ZM301.83 90.7928C301.877 90.8398 301.9 90.8633 301.947 90.9103C301.971 90.8868 301.994 90.8633 302.018 90.8398C301.971 90.7928 301.947 90.7693 301.9 90.7223C301.877 90.7458 301.853 90.7693 301.83 90.7928Z" fill="#F39200"/>
<path d="M411.823 78.0978C400.293 76.3581 391.886 67.213 390.688 55.0822C390.688 46.7834 388.81 38.9313 385.452 31.9256C382.094 24.9198 377.28 18.7369 371.362 13.8234C368.028 11.0493 364.364 8.67491 360.443 6.74715C353.375 3.29129 345.414 1.36353 337.031 1.36353C321.955 1.36353 308.311 7.59348 298.589 17.6319C298.613 17.6554 298.636 17.679 298.66 17.7025C298.636 17.726 298.613 17.7495 298.589 17.773C298.636 17.82 298.66 17.8435 298.707 17.8905C308.1 27.6939 313.783 41.0237 313.618 55.6934C313.454 69.7755 307.795 82.6351 298.66 92.1563C298.636 92.1798 298.613 92.2033 298.589 92.2268C298.636 92.2738 298.66 92.2974 298.707 92.3444C298.66 92.3914 298.636 92.4149 298.589 92.4619C307.982 102.148 320.968 108.331 335.34 108.777C349.265 109.201 362.04 104.334 371.808 95.9883L371.832 95.9648C373.382 94.6483 375.589 94.5072 377.233 95.6592C377.797 96.0353 378.36 96.4115 378.924 96.7641C378.924 96.7641 378.947 96.7876 378.971 96.7876C382.517 98.9505 386.673 100.173 391.111 100.173C404.05 100.173 414.5 91.0984 414.5 78.1448L411.823 78.0978ZM360.419 56.6338C359.668 68.2944 350.251 77.7451 338.604 78.4974C324.655 79.3908 313.125 68.0828 313.642 54.2124C314.088 42.0581 323.974 32.1607 336.115 31.667C349.993 31.1263 361.335 42.6693 360.419 56.6338Z" fill="#F39200"/>
<path d="M107.792 54.7531C107.675 55.4583 107.605 56.1871 107.581 56.9159V58.444C107.276 61.9939 106.618 65.4733 105.632 68.7881C101.335 83.4814 90.9319 95.5651 77.3589 102.101V57.8798C77.3589 57.5507 77.3589 57.2215 77.3589 56.9159C77.3589 56.5633 77.3824 56.2106 77.3824 55.858C77.6172 49.7926 78.8618 43.9858 80.9282 38.6022H62.2125C58.0326 38.6022 54.2754 40.2949 51.5279 43.0219C48.7335 45.8195 47.0192 49.7221 47.1132 54.0243C47.2775 62.323 54.2519 68.8586 62.5178 68.8586H72.0048C67.7075 73.9366 61.2967 77.1809 54.111 77.1809C38.6124 77.1809 26.6362 62.135 31.9668 45.8195C34.409 38.3671 40.4676 31.1733 48.3108 30.9617C52.068 30.8441 55.2382 30.7736 58.5492 30.7031C63.4336 30.7031 71.6995 31.4554 78.3686 26.5184C86.4467 20.5471 86.5876 16.0568 86.5876 0.329123C86.5876 -0.0940434 56.1775 -0.0235156 54.111 -0.0235156C22.926 -6.33486e-06 0.0773129 24.4966 0.500002 54.518C0.92269 83.5989 24.7811 107.273 53.8527 107.437C62.283 107.484 70.2436 105.58 77.3589 102.171C90.9319 95.6357 101.335 83.5519 105.632 68.8586C106.618 65.5438 107.276 62.088 107.581 58.5145V56.9864C107.581 56.2341 107.652 55.5289 107.792 54.8236V54.706C107.792 54.7296 107.792 54.7531 107.792 54.7531Z" fill="#46B8AA"/>
<path d="M206.49 56.1636V59.784C206.537 59.1963 206.561 58.5851 206.561 57.9738C206.561 57.3626 206.537 56.7514 206.49 56.1636ZM298.589 17.867C298.542 17.82 298.519 17.7965 298.472 17.7495C298.519 17.7025 298.542 17.679 298.589 17.6319C288.844 7.59348 275.224 1.36353 260.125 1.36353C251.718 1.36353 243.781 3.29129 236.689 6.74715C236.619 6.77066 236.572 6.81767 236.501 6.84118C236.407 6.8882 236.337 6.93522 236.243 6.95873C230.137 9.99142 224.736 14.1526 220.204 19.1835C220.509 19.4892 220.838 19.7948 221.143 20.1004C221.449 20.406 221.754 20.7352 222.059 21.0408C222.365 21.3699 222.67 21.6755 222.952 22.0047C223.257 22.3338 223.539 22.6629 223.82 22.992C225.253 24.6612 226.568 26.4009 227.789 28.2346C227.836 28.2816 227.859 28.3286 227.883 28.3757C228.094 28.7048 228.306 29.0339 228.517 29.3631C228.54 29.3866 228.54 29.4101 228.564 29.4336C228.799 29.8097 229.01 30.1624 229.245 30.5385C229.48 30.9147 229.691 31.2908 229.902 31.6905C230.349 32.4663 230.748 33.2421 231.147 34.0414C231.335 34.4411 231.546 34.8407 231.734 35.2404C232.11 36.0632 232.486 36.8625 232.814 37.7088C232.979 38.132 233.143 38.5317 233.307 38.9548C233.942 40.6475 234.505 42.3637 234.951 44.1269C235.069 44.5736 235.186 44.9967 235.28 45.4434C235.28 45.4904 235.304 45.5139 235.304 45.5609C235.421 46.0546 235.515 46.5248 235.632 47.0185C235.632 47.0655 235.656 47.1126 235.656 47.1596C235.75 47.6062 235.844 48.0529 235.914 48.4996C235.914 48.5466 235.938 48.5936 235.938 48.6642C236.008 49.1108 236.102 49.581 236.172 50.0277C236.172 50.0512 236.172 50.0982 236.172 50.1217C236.219 50.4274 236.266 50.7565 236.29 51.0856C236.337 51.3912 236.36 51.7204 236.407 52.0495C236.454 52.5667 236.501 53.1074 236.548 53.6246C236.572 54.0008 236.595 54.3769 236.619 54.7531C236.619 54.9176 236.642 55.0822 236.642 55.2468C236.642 55.2938 236.642 55.3173 236.642 55.3643C236.642 54.9646 236.642 54.5415 236.642 54.1183C237.088 41.964 246.974 32.0666 259.115 31.5729C272.453 31.0557 283.467 41.7289 283.49 54.9646V55.0117C283.49 67.7537 273.322 78.1213 260.688 78.4504C260.712 78.8266 260.712 79.2027 260.712 79.5788C260.712 92.5325 250.215 103.041 237.276 103.041C233.707 103.041 230.349 102.242 227.319 100.831C227.296 100.808 227.249 100.808 227.225 100.784C227.038 100.69 226.873 100.62 226.685 100.526C226.662 100.526 226.638 100.502 226.615 100.479C226.451 100.385 226.286 100.314 226.122 100.22C225.887 100.102 225.629 99.9614 225.394 99.8203C225.159 99.6793 224.924 99.5382 224.689 99.3972C224.22 99.115 223.75 98.8094 223.304 98.4803C221.66 97.3283 219.429 97.4694 217.903 98.7624L217.879 98.7859C215.954 100.432 213.887 101.96 211.75 103.3C211.281 103.605 210.788 103.887 210.318 104.193C209.707 104.546 209.097 104.898 208.463 105.227C207.829 105.557 207.218 105.886 206.561 106.191C206.537 106.191 206.514 106.215 206.49 106.215V106.238V117.946C206.49 134.544 219.946 150.882 236.525 150.882V116.089L236.712 103.417C244.086 107.014 252.422 108.965 261.228 108.777C275.835 108.472 289.055 102.265 298.589 92.4384L298.519 92.3679C298.542 92.3444 298.566 92.3209 298.589 92.2974C298.542 92.2503 298.519 92.2268 298.472 92.1798C289.408 82.7056 283.772 69.9165 283.56 55.905C283.349 41.1412 289.079 27.7409 298.519 17.914C298.566 17.914 298.566 17.8905 298.589 17.867Z" fill="#EC6696"/>
<path d="M298.589 92.2269C298.636 92.2739 298.66 92.2974 298.707 92.3444C298.66 92.3914 298.636 92.4149 298.589 92.4619L298.519 92.3914C298.542 92.3679 298.566 92.3444 298.589 92.3209C298.542 92.2739 298.519 92.2504 298.472 92.2033C289.408 82.7291 283.772 69.9401 283.56 55.9285C283.349 41.1647 289.079 27.7645 298.519 17.9376C298.542 17.9141 298.566 17.8906 298.589 17.8671C298.542 17.82 298.519 17.7965 298.472 17.7495C298.519 17.7025 298.542 17.679 298.589 17.632C298.613 17.6555 298.636 17.679 298.66 17.7025C298.636 17.726 298.613 17.7495 298.589 17.773C298.636 17.82 298.66 17.8435 298.707 17.8906C308.1 27.6939 313.783 41.0237 313.618 55.6935C313.454 69.7755 307.795 82.6351 298.66 92.1563C298.636 92.1798 298.613 92.2033 298.589 92.2269Z" fill="#E30613"/>
<path d="M260.782 79.6729C260.782 92.6265 250.285 103.135 237.346 103.135C233.777 103.135 230.419 102.336 227.39 100.925C227.366 100.902 227.319 100.902 227.296 100.878C227.108 100.784 226.944 100.714 226.756 100.62C226.732 100.62 226.709 100.596 226.685 100.573C226.521 100.479 226.357 100.408 226.192 100.314C225.957 100.196 225.699 100.055 225.464 99.9144C225.229 99.7733 224.995 99.6322 224.76 99.4912C224.29 99.2091 223.82 98.9035 223.374 98.5743C221.73 97.4224 219.5 97.5634 217.973 98.8564L217.95 98.88C216.024 100.526 213.958 102.054 211.821 103.394C211.351 103.699 210.858 103.981 210.388 104.287C209.778 104.64 209.167 104.992 208.533 105.321C207.899 105.651 207.289 105.98 206.631 106.285C206.608 106.285 206.584 106.309 206.561 106.309V59.7605C206.608 59.1728 206.631 58.5616 206.631 57.9503C206.631 57.3391 206.608 56.7513 206.561 56.1401V55.0587C206.561 41.2823 211.727 28.7283 220.251 19.2306C220.275 19.2071 220.298 19.1835 220.322 19.16C220.627 19.4657 220.956 19.7713 221.261 20.0769C221.566 20.3825 221.871 20.7116 222.177 21.0173C222.482 21.3464 222.787 21.652 223.069 21.9811C223.374 22.3103 223.656 22.6394 223.938 22.9685C225.37 24.6377 226.685 26.3774 227.906 28.2111C227.953 28.2581 227.977 28.3051 228 28.3522C228.212 28.6813 228.423 29.0104 228.634 29.3395C228.658 29.3631 228.658 29.3866 228.681 29.4101C228.916 29.7862 229.128 30.1389 229.362 30.515C229.597 30.8912 229.809 31.2673 230.02 31.667C230.466 32.4428 230.865 33.2186 231.264 34.0179C231.452 34.4175 231.664 34.8172 231.852 35.2169C232.227 36.0397 232.603 36.839 232.932 37.6853C233.096 38.1085 233.261 38.5082 233.425 38.9313C234.059 40.624 234.623 42.3402 235.069 44.1034C235.186 44.55 235.303 44.9732 235.397 45.4199C235.397 45.4669 235.421 45.4904 235.421 45.5374C235.538 46.0311 235.632 46.5013 235.75 46.995C235.75 47.042 235.773 47.089 235.773 47.1361C235.867 47.5827 235.961 48.0294 236.031 48.4761C236.031 48.5231 236.055 48.5701 236.055 48.6406C236.125 49.0873 236.219 49.5575 236.29 50.0042C236.29 50.0277 236.29 50.0747 236.29 50.0982C236.337 50.4038 236.384 50.733 236.407 51.0621C236.454 51.3677 236.478 51.6969 236.525 52.026C236.572 52.5432 236.619 53.0839 236.665 53.6011C236.689 53.9773 236.712 54.3534 236.736 54.7296C236.736 54.8941 236.759 55.0587 236.759 55.2232C236.759 55.2703 236.759 55.2938 236.759 55.3408V55.3643C236.759 55.6464 236.759 55.9285 236.783 56.1871C237.417 68.5765 247.632 78.4269 260.172 78.4269C260.36 78.4269 260.524 78.4269 260.712 78.4269C260.735 78.4269 260.759 78.4269 260.782 78.4269C260.782 78.8971 260.782 79.2732 260.782 79.6729Z" fill="#006D57"/>
<path d="M107.816 53.5306V53.9773C107.816 54.2124 107.816 54.471 107.816 54.706C107.816 54.706 107.816 54.7296 107.816 54.7531C107.699 55.4583 107.628 56.1871 107.605 56.9159V58.444C107.299 61.9939 106.642 65.4733 105.656 68.7881C101.358 83.4814 90.9554 95.5651 77.3824 102.101V57.8798C77.3824 57.5507 77.3824 57.2215 77.3824 56.9159C77.3824 56.5633 77.4058 56.2106 77.4058 55.858C77.6407 49.7926 78.8853 43.9858 80.9517 38.6022H92.6696C100.936 38.6022 107.769 45.2318 107.816 53.5306Z" fill="#1D71B8"/>
<path d="M158.327 44.5736C157.928 44.5971 157.529 44.6206 157.106 44.6206H157.036C156.801 44.6206 156.566 44.6206 156.331 44.5971C152.762 44.4325 149.38 42.9749 146.727 40.577C143.698 37.8264 139.94 35.8516 135.784 35.0053C135.432 34.9348 135.079 34.8642 134.727 34.8172C139.071 25.6956 145.928 18.0316 154.359 12.648C155.251 12.0838 156.143 11.5431 157.083 11.0258C160.84 13.1182 164.339 15.6572 167.485 18.5723C177.16 27.5529 171.102 43.5627 158.327 44.5736Z" fill="#4F5187"/>
<path d="M157.083 11.0023C156.167 11.5196 155.251 12.0603 154.359 12.6245C145.905 18.0081 139.071 25.6956 134.727 34.7937C133.529 34.6056 132.285 34.5116 131.017 34.5116C119.252 34.5116 109.53 43.1865 107.839 54.471C107.839 54.471 107.839 54.471 107.839 54.4945C107.816 54.565 107.816 54.6355 107.792 54.7061C107.792 54.471 107.792 54.2124 107.792 53.9773V53.5306C107.745 45.2553 100.936 38.6022 92.6461 38.6022H80.9283C80.9283 38.5787 80.9517 38.5552 80.9517 38.5317C84.2158 30.1389 89.5229 22.757 96.2625 17.0207C99.7144 14.1056 103.495 11.6136 107.581 9.63881C114.649 6.18295 122.61 4.25519 131.017 4.25519C140.199 4.25519 148.864 6.5591 156.425 10.6497H156.449C156.636 10.7673 156.871 10.8848 157.083 11.0023Z" fill="#36A9E1"/>
</g>
<defs>
<clipPath id="clip0_1_97">
<rect width="414" height="151" fill="white" transform="translate(0.5)"/>
</clipPath>
</defs>
</svg>
